<svg xmlns="http://www.w3.org/2000/svg" viewBox="0 0 640 440"><defs><filter id="s"><feDropShadow dx="0" dy="14" stdDeviation="10" flood-opacity=".2"/></filter></defs><g filter="url(#s)"><path fill="#9B7357" d="M322 163c-12-63 23-119 77-124 50-5 83 39 73 89l-7 34c32 7 51 32 39 62-12 30-49 41-78 24-17 39-47 61-85 55-43-7-62-62-19-140Z"/><path fill="#F3F6F8" d="M375 84c25-20 57-10 66 19 8 27-9 51-31 55-25 4-49-19-47-43 1-13 5-23 12-31Z"/><circle cx="393" cy="108" r="7" fill="#263746"/><path fill="#263746" d="M455 98c17-10 31-1 29 13-2 14-19 18-31 8Z"/><path fill="#F3F6F8" d="M344 193c18 34 41 49 70 54-10 20-33 31-57 23-26-8-33-43-13-77Z"/><path fill="#80604E" d="M156 239c-22-36-4-85 31-89 31-4 50 22 47 54 28 3 48 25 40 50-8 25-39 35-64 20-13 29-37 44-64 39-33-6-44-43-16-74Z"/><path fill="#D8C7B2" d="M202 202c21-7 39 8 39 28 0 20-18 33-37 28-18-5-27-24-20-40 4-8 10-13 18-16Z"/><circle cx="211" cy="219" r="5" fill="#263746"/><path fill="#263746" d="M260 218c12-7 23 0 20 10-3 10-16 12-24 4Z"/><path fill="#D8C7B2" d="M181 252c12 19 27 29 48 32-8 15-25 22-42 15-18-7-20-31-6-47Z"/></g><path fill="#A88762" d="M86 366c96-35 201-23 283 7 76 27 151 29 226-9v76H86Z" opacity=".85"/></svg>
